<?xml version="1.0" encoding="UTF-8"?>
<svg xmlns="http://www.w3.org/2000/svg"
     width="96" height="96"
     viewBox="0 0 20570 20570"
     preserveAspectRatio="xMidYMid meet">
  <g transform="matrix(1 0 0 -1 0 20570)" fill="#000" stroke="none">
    <path d="M19800 20470 c0 -5 5 -10 10 -10 6 0 10 5 10 10 0 6 -4 10 -10 10 -5 0 -10 -4 -10 -10z"/>
    <path d="M11830 14641 c-419 -42 -783 -178 -1070 -400 -120 -92 -163 -133 -248 -235 -91 -110 -149 -198 -219 -338 -54 -107 -121 -301 -143 -413 -7 -33 -16 -73 -21 -90 -8 -29 -24 -177 -36 -335 -6 -77 20 -382 39 -455 5 -22 14 -58 20 -80 59 -235 167 -450 324 -645 178 -222 470 -412 779 -507 72 -22 118 -32 275 -64 25 -5 135 -15 245 -22 l200 -12 -60 -65 c-33 -36 -96 -105 -140 -155 -43 -49 -106 -119 -140 -155 -33 -36 -87 -96 -120 -135 -33 -38 -80 -92 -105 -120 -94 -103 -190 -216 -231 -271 -35 -46 -40 -57 -28 -66 9 -6 281 -8 783 -4 l769 5 40 38 c118 114 477 553 710 866 259 350 430 697 514 1042 30 125 33 142 48 240 52 336 39 705 -35 980 -146 546 -496 982 -970 1209 -171 81 -250 108 -440 147 -52 11 -115 25 -140 31 -54 12 -494 19 -600 9z m65 -925 c117 -54 185 -200 185 -399 0 -209 -89 -327 -246 -327 -83 0 -139 25 -196 89 -62 68 -78 120 -78 245 0 237 105 414 245 415 22 1 63 -10 90 -23z m700 -32 c80 -36 110 -95 135 -266 11 -75 10 -91 -9 -166 -37 -149 -124 -246 -245 -273 -45 -10 -61 -9 -105 6 -69 23 -104 54 -131 117 -21 48 -22 63 -17 173 7 152 29 217 109 322 78 103 163 131 263 87z m-1238 -553 c110 -56 193 -222 193 -385 0 -146 -78 -235 -204 -236 -108 0 -203 69 -260 190 -28 60 -31 74 -30 170 0 100 1 108 34 168 33 63 75 105 115 115 35 10 112 -1 152 -22z m1749 -106 c37 -23 68 -102 72 -180 11 -203 -141 -394 -314 -395 -86 0 -156 64 -170 157 -27 178 111 401 267 432 52 11 116 4 145 -14z m-928 -320 c187 -44 364 -212 433 -412 54 -159 -10 -291 -167 -340 -41 -14 -96 -23 -131 -23 -67 0 -184 32 -203 55 -18 21 -34 19 -107 -16 -105 -50 -273 -65 -348 -30 -23 10 -53 33 -69 52 -26 30 -28 38 -24 100 3 55 11 83 47 152 120 238 297 425 439 463 60 16 56 16 130 -1z"/>
    <path d="M6025 14600 l-350 -5 1 -1085 c0 -597 2 -1617 2 -2267 l2 -1183 580 0 580 0 0 643 0 642 194 194 c106 106 198 192 204 190 6 -2 27 -25 49 -51 34 -41 442 -516 468 -544 5 -6 42 -49 80 -94 39 -46 90 -106 115 -134 25 -29 90 -105 145 -171 55 -65 170 -200 255 -299 85 -100 186 -218 224 -264 l68 -82 716 2 c512 2 716 6 719 14 3 10 -54 83 -247 309 -41 48 -104 122 -140 165 -36 42 -121 141 -188 221 -68 79 -156 182 -195 228 -40 46 -103 121 -142 166 -38 45 -104 122 -145 170 -41 49 -104 123 -140 164 -36 42 -99 117 -140 166 -41 50 -106 126 -145 171 -38 44 -99 115 -135 159 -36 43 -92 110 -125 149 -33 39 -95 115 -138 168 -43 53 -82 100 -87 103 -6 3 -10 11 -10 17 0 6 96 108 213 227 116 119 255 261 307 316 52 55 248 257 435 450 187 192 401 413 475 490 74 77 240 247 368 377 132 133 232 242 230 250 -6 18 -1363 17 -1406 -1 -16 -7 -109 -101 -208 -209 -98 -108 -237 -258 -309 -333 -129 -134 -385 -406 -519 -550 -38 -41 -146 -155 -240 -254 -94 -99 -192 -202 -216 -230 -25 -27 -97 -104 -160 -170 -63 -66 -137 -144 -163 -173 -27 -29 -53 -50 -58 -47 -5 4 -9 416 -8 997 0 545 -3 993 -6 997 -8 7 -336 8 -810 1z"/>
    <path d="M12460 9674 c-336 -31 -640 -149 -905 -349 -123 -94 -295 -288 -367 -415 -14 -25 -37 -65 -51 -90 -98 -173 -177 -497 -177 -721 0 -78 24 -285 40 -356 24 -102 29 -121 49 -182 78 -236 264 -512 443 -658 268 -219 499 -315 888 -368 207 -29 495 -8 705 49 151 42 292 107 435 201 112 74 290 220 290 238 0 29 -149 212 -302 372 l-115 120 -77 -73 c-221 -210 -424 -296 -696 -296 -207 1 -358 44 -515 148 -289 192 -469 571 -426 898 41 298 162 519 373 678 116 88 226 140 368 176 75 18 315 18 405 -1 206 -43 307 -97 481 -259 40 -36 76 -66 80 -65 10 0 198 214 261 294 57 74 153 213 153 222 0 4 -37 36 -83 70 -245 183 -455 284 -692 332 -27 6 -72 15 -100 22 -51 11 -384 20 -465 13z"/>
    <path d="M5461 9568 c-32 -75 -34 -81 -81 -203 -23 -60 -51 -129 -61 -152 -11 -24 -19 -49 -19 -56 0 -7 -4 -17 -9 -22 -5 -6 -16 -30 -24 -55 -19 -56 -102 -270 -128 -327 -10 -24 -19 -46 -19 -51 0 -5 -9 -27 -20 -50 -11 -22 -20 -46 -20 -52 0 -5 -9 -32 -21 -58 -27 -60 -25 -56 -99 -247 -34 -88 -71 -179 -81 -202 -10 -24 -19 -47 -19 -53 0 -6 -4 -18 -9 -28 -13 -26 -38 -90 -181 -457 -4 -11 -13 -33 -20 -50 -7 -16 -16 -39 -20 -50 -99 -254 -136 -347 -151 -382 -10 -24 -19 -46 -19 -51 0 -5 -9 -27 -20 -50 -11 -22 -20 -46 -20 -52 0 -5 -4 -18 -9 -28 -5 -9 -28 -66 -51 -127 -23 -60 -46 -118 -51 -127 -5 -10 -9 -20 -9 -23 0 -3 159 -5 354 -5 l354 0 10 28 c6 15 50 131 98 257 47 127 92 245 99 262 l14 33 623 -3 622 -2 13 -25 c6 -14 26 -63 43 -110 18 -47 36 -95 41 -107 5 -13 13 -33 18 -45 5 -13 19 -50 31 -83 12 -33 26 -69 30 -80 4 -11 17 -42 27 -70 l19 -50 367 -3 c202 -1 367 -1 367 1 0 2 -6 17 -14 33 -12 24 -214 527 -547 1359 -26 66 -183 455 -348 865 l-299 745 -369 3 -369 2 -23 -52z m415 -785 c4 -15 29 -81 56 -147 26 -66 48 -123 48 -128 0 -4 8 -27 19 -51 10 -23 29 -69 41 -102 12 -33 26 -69 30 -80 4 -11 22 -57 39 -102 17 -46 45 -120 62 -165 17 -46 44 -116 60 -157 16 -40 26 -77 23 -82 -3 -5 -185 -9 -405 -9 -365 0 -399 1 -399 17 0 9 23 75 51 147 28 72 75 192 104 266 111 281 213 546 224 583 15 43 38 48 47 10z"/>
    <!-- (continue including the rest of your <path> elements exactly as in your file) -->
  </g>
</svg>
